<?xml version="1.0" standalone="no"?>
<!DOCTYPE svg PUBLIC "-//W3C//DTD SVG 20010904//EN"
 "http://www.w3.org/TR/2001/REC-SVG-20010904/DTD/svg10.dtd">
<svg version="1.0" xmlns="http://www.w3.org/2000/svg"
 width="192.000000pt" height="192.000000pt" viewBox="0 0 192.000000 192.000000"
 preserveAspectRatio="xMidYMid meet">

<g transform="translate(0.000000,192.000000) scale(0.100000,-0.100000)"
fill="#000000" stroke="none">
<path d="M209 1875 c-69 -25 -101 -46 -95 -61 3 -9 1 -12 -4 -9 -16 10 -47
-35 -65 -95 -14 -49 -16 -132 -13 -780 3 -685 4 -727 22 -760 26 -49 64 -88
111 -113 40 -22 44 -22 765 -25 503 -2 741 0 776 8 61 13 124 63 157 124 l22
41 3 730 c3 828 5 803 -73 880 -78 77 -54 75 -859 74 -564 0 -718 -3 -747 -14z
m1329 -139 c23 -22 27 -35 28 -85 1 -67 9 -84 35 -76 14 5 37 -12 94 -67 64
-63 75 -79 75 -108 0 -43 -33 -80 -73 -80 -23 0 -46 16 -108 77 -56 54 -78 82
-74 94 8 24 -12 34 -72 34 -45 0 -57 4 -83 30 -31 32 -48 89 -36 121 6 15 13
12 46 -21 l40 -39 32 32 32 32 -37 38 c-20 21 -37 42 -37 46 0 5 25 6 56 4 43
-4 61 -11 82 -32z m-1088 -98 c25 -10 61 -29 80 -42 23 -16 56 -26 98 -30 80
-7 165 -47 269 -125 121 -90 236 -222 280 -321 6 -14 41 -89 78 -167 l68 -141
81 -36 c130 -58 295 -191 269 -217 -6 -6 -53 -17 -106 -26 -70 -12 -94 -19
-90 -29 3 -7 37 -33 77 -58 69 -43 176 -143 176 -165 0 -6 -21 4 -47 23 -27
18 -86 53 -132 76 -84 44 -155 105 -164 142 -7 26 42 47 140 58 41 4 77 10 79
13 3 3 -28 27 -68 53 -67 44 -120 69 -223 105 -38 13 -44 22 -103 139 -35 69
-73 147 -84 175 -30 75 -98 172 -176 249 -115 114 -239 183 -352 196 -47 5
-79 16 -114 38 -56 36 -141 67 -156 57 -22 -14 -8 -53 44 -122 38 -51 62 -95
81 -155 29 -89 55 -139 91 -176 22 -22 22 -25 8 -70 -32 -103 -37 -136 -31
-208 4 -51 13 -87 29 -116 32 -58 45 -59 53 -1 9 68 22 104 49 136 l23 28 46
-96 c52 -106 137 -235 175 -266 14 -10 21 -19 17 -19 -10 0 -113 89 -154 134
-20 21 -46 57 -58 80 l-21 41 -6 -27 c-3 -16 -9 -40 -12 -55 -20 -97 -115 -75
-163 38 -32 73 -38 169 -16 265 9 43 19 83 22 89 2 6 -6 22 -18 36 -24 27 -53
88 -93 195 -16 43 -47 97 -76 132 -52 66 -66 105 -51 143 23 61 82 70 181 27z
m168 -228 c23 -21 26 -37 16 -64 -9 -24 -18 -20 -47 25 -37 57 -16 83 31 39z"/>
</g>
</svg>
